<?xml version="1.0" encoding="UTF-8"?>
<svg xmlns="http://www.w3.org/2000/svg" version="1.1" viewBox="0 0 49 47">
  <!-- Generator: Adobe Illustrator 28.7.3, SVG Export Plug-In . SVG Version: 1.2.0 Build 164)  -->
  <g>
    <g id="Layer_1">
      <g>
        <path d="M24.4,5.9c2.5,0,5,0,7.4,0,.9,0,1,0,1.2.9.6,2.8,3,4.8,5.8,4.9.7,0,.9.2.9.8,0,5.4-.4,10.8-1.9,16-1.2,4.1-3,7.8-6.2,10.7-2,1.8-4.4,3-6.9,4-.3,0-.6,0-.9,0-6.5-2.4-10.5-7-12.5-13.5-1-3.3-1.7-6.6-1.9-10-.2-2.3-.2-4.5-.3-6.8,0-.9.1-1.1,1-1.1,2.8-.2,5.1-2.2,5.7-5,.1-.7.3-.8,1-.8,2.5,0,5,0,7.5,0ZM10.4,13.1c0,1.6.1,3.2.2,4.7.2,3.8.8,7.6,1.9,11.3,1.8,6,5.4,10.5,11.4,12.7.2,0,.6.2.8,0,2.4-1,4.6-2.2,6.5-4,2.9-2.7,4.4-6.2,5.5-9.9,1.3-4.8,1.7-9.7,1.8-14.6,0-.1,0-.2,0-.3,0,0-.2,0-.3,0-3.2-.6-5.3-2.4-6.3-5.4-.1-.3-.3-.4-.6-.4-4.6,0-9.2,0-13.7,0-.3,0-.5,0-.6.5-.3,1.1-.9,2.1-1.7,2.9-1.3,1.4-2.9,2.2-4.9,2.5Z"/>
        <path d="M24.4,8.2c2,0,4,0,6,0,.4,0,.7,0,.8.5,1.1,2.6,3,4.3,5.7,5.1.3,0,.5.1.5.5-.2,4.4-.5,8.7-1.6,13-.9,3.2-2.1,6.2-4.2,8.8-1.8,2.3-4.3,3.7-6.9,4.8-.2,0-.5,0-.7,0-4.9-1.9-8.1-5.5-10-10.4-1.2-3.2-1.9-6.6-2.2-10-.2-2-.3-4-.4-6,0-.4,0-.5.5-.7,2.7-.8,4.7-2.5,5.8-5.1.2-.4.4-.4.7-.4,2,0,4.1,0,6.1,0ZM24.4,9.5c-1.7,0-3.5,0-5.2,0-.4,0-.6.1-.8.5-1.1,2.3-2.9,3.8-5.3,4.7-.4.2-.5.4-.5.8.1,1.5.2,2.9.3,4.4.3,3.4.9,6.7,2.1,9.9,1.6,4.3,4.3,7.7,8.7,9.6.4.2.7.1,1.1,0,4-1.7,6.6-4.7,8.3-8.6,2.1-4.9,2.6-10.2,2.8-15.4,0-.4-.2-.5-.5-.6-2.4-.9-4.1-2.5-5.3-4.8-.2-.3-.4-.4-.7-.4-1.7,0-3.5,0-5.2,0Z"/>
        <path d="M25.3,37c0,.5-.4.9-.9.9-.5,0-.9-.4-.9-.9,0-.5.4-.9.9-.9.5,0,.9.4.9.9Z"/>
        <path d="M29.6,11.8c0,.5-.4.9-.9.9-.5,0-.9-.4-.9-.9,0-.5.4-.9.9-.9.5,0,.9.4.9.9Z"/>
        <path d="M25.3,11.8c0,.5-.4.9-.9.9-.5,0-.9-.4-.9-.9,0-.5.4-.9.9-.9.5,0,.9.4.9.9Z"/>
        <path d="M16.3,22.7c0,.5-.4.9-.9.9-.5,0-.9-.4-.9-.9,0-.5.4-.9.9-.9.5,0,.9.4.9.9Z"/>
        <path d="M32.9,28.4c0,.5-.4.9-.9.9-.5,0-.9-.4-.9-.9,0-.5.4-.9.9-.9.5,0,.9.4.9.9Z"/>
        <path d="M21,11.8c0,.5-.4.9-.9.9-.5,0-.9-.4-.9-.9,0-.5.4-.9.9-.9.5,0,.9.4.9.9Z"/>
        <path d="M15.8,16.5c0,.5-.4.9-.9.9-.5,0-.9-.4-.9-.9,0-.5.4-.9.9-.9.5,0,.9.4.9.9Z"/>
        <path d="M34.8,16.5c0,.5-.4.9-.9.9-.5,0-.9-.4-.9-.9,0-.5.4-.9.9-.9.5,0,.9.4.9.9Z"/>
        <path d="M20.6,33.7c0,.5-.4.9-.9.9-.5,0-.9-.4-.9-.9,0-.5.4-.9.9-.9.5,0,.9.4.9.9Z"/>
        <path d="M29.2,32.8c.5,0,.9.4.9.9,0,.5-.4.9-.9.9-.5,0-.9-.4-.9-.9,0-.5.4-.9.9-.9Z"/>
        <path d="M32.6,22.7c0-.5.5-.9,1-.9.5,0,.9.5.8,1,0,.5-.5.9-.9.9-.5,0-.9-.5-.8-1Z"/>
        <path d="M17.7,28.5c0,.5-.4.9-.9.9-.5,0-.9-.4-.9-.9,0-.5.4-.9.9-.9.5,0,.9.4.9.9Z"/>
      </g>
    </g>
  </g>
</svg>