<?xml version="1.0" encoding="UTF-8"?>
<svg id="Layer_1" xmlns="http://www.w3.org/2000/svg" version="1.1" viewBox="0 0 1200 1200">
  <!-- Generator: Adobe Illustrator 29.4.0, SVG Export Plug-In . SVG Version: 2.1.0 Build 152)  -->
  <defs>
    <style>
      .st0 {
        fill-rule: evenodd;
      }
    </style>
  </defs>
  <path class="st0" d="M774.7,607.9c0-7.9-5.4-15-13.5-16.8l-25.3-5.7-10.5-25.4,13.5-21.4c4.7-6.7,4-16-2-22l-53.7-53.7c-5.5-5.6-14.4-6.8-21.4-2.3l-22,14-25.4-10.5-5.3-23.9c-1.1-8.4-8.3-15-17.1-15h-76c-7.9,0-15,5.5-16.8,13.5l-5.7,25.3-25.4,10.5-21.4-13.5c-6.7-4.7-16-4-22,2l-53.7,53.7c-5.6,5.5-6.8,14.4-2.3,21.4l14,22-10.5,25.4-23.9,5.3c-8.4,1.1-15,8.3-15,17.1v76h0c0,7.9,5.4,15,13.5,16.8l25.3,5.7,10.5,25.4-13.5,21.4c-4.7,6.7-4,16,2,22l53.7,53.7c5.5,5.6,14.4,6.8,21.4,2.3l22-14,25.4,10.5,5.3,23.9c1.1,8.4,8.3,15,17.1,15h76c7.9,0,15-5.5,16.8-13.5l5.7-25.3,25.4-10.5,21.4,13.5c6.7,4.7,16,4,22-2l53.7-53.7c5.6-5.5,6.8-14.4,2.3-21.4l-14-22,10.5-25.4,23.9-5.3c8.4-1.1,15-8.3,15-17.1v-76h0ZM740.3,670.3l-21.7,4.9c-6.4,1.5-11.2,6.3-12.8,12.3h0c-3.6,13.1-8.5,24.9-15.2,36.6-3.3,5.8-2.9,12.7.5,18l11.8,18.7-34.2,34.2-18.8-12c-5.7-3.6-12.7-3.5-18.1-.2-10.9,6.4-24,11.7-36.3,15-6.9,1.9-11.7,7.7-12.6,14.3l-4.5,20.2h-48.5l-4.9-21.7c-1.5-6.4-6.3-11.2-12.3-12.8h0c-13.1-3.6-24.9-8.6-36.6-15.2-5.8-3.3-12.7-2.9-18,.5l-18.7,11.8-34.2-34.2,11.9-18.8c3.6-5.7,3.5-12.7.2-18.1-6.4-10.9-11.7-24-15-36.3-1.9-6.9-7.7-11.7-14.3-12.6l-20.2-4.5v-48.5l21.7-4.9c6.4-1.5,11.2-6.3,12.8-12.3h0c3.6-13.1,8.5-24.9,15.2-36.6,3.3-5.8,2.9-12.7-.6-18l-11.8-18.7,34.2-34.2,18.8,12c5.7,3.6,12.7,3.5,18.1.2,10.9-6.4,24-11.7,36.3-15,6.9-1.9,11.7-7.7,12.6-14.3l4.5-20.2h48.5l4.9,21.7c1.5,6.4,6.3,11.2,12.3,12.8h0c6.6,1.8,12.8,4,18.8,6.4h0c6.1,2.5,12,5.4,17.9,8.8,5.8,3.3,12.7,2.9,18-.5l18.7-11.8,34.2,34.2-11.9,18.8c-3.6,5.7-3.5,12.7-.2,18.1,6.4,10.9,11.7,24,15,36.3,1.9,6.9,7.7,11.7,14.3,12.6l20.2,4.5v48.5Z"/>
  <path class="st0" d="M554.1,540.3c-58.3,0-105.6,47.3-105.6,105.6s47.3,105.6,105.6,105.6,105.6-47.3,105.6-105.6-47.3-105.6-105.6-105.6ZM604.4,696.3c-27.8,27.8-72.8,27.8-100.6,0s-27.8-72.8,0-100.6,72.8-27.8,100.6,0c27.8,27.8,27.8,72.8,0,100.6Z"/>
  <path class="st0" d="M1057,630h-222.8c-9.5,0-17.2,7.7-17.2,17.2,0,145.9-118.3,264.1-264.1,264.1s-264.1-118.3-264.1-264.1,10-82.5,27.8-118c.2-.4.5-.8.7-1.3h0c44.3-87.2,134.2-144.8,235.7-144.8s17.2-7.7,17.2-17.2v-222.8c0-9.5-7.7-17.2-17.2-17.2C264.8,125.7,31.3,359.2,31.3,647.2s233.5,521.5,521.5,521.5,521.5-233.5,521.5-521.5-7.7-17.2-17.2-17.2ZM112,439.9c76.5-162.6,238.4-272.9,423.6-279.4v188.6c-102.9,5.8-193.2,64-242.5,150.7l-181-59.9s0,0,0,0h0s0,0,0,0ZM466.7,1126.7h0c-100-17.9-189.4-66.2-258.3-135.1C73.2,856.4,28.4,652.7,98.3,471.7l179.3,59.3c-15.1,35.7-23.4,75-23.4,116.2,0,137.6,93.6,255.5,223.5,289.1l-11,190.3ZM500.9,1131.5l10.9-188.4s0,0,0,0h0c173.4,23.9,329.3-105.3,339.2-278.6h188.6c-9.8,281.5-256.5,496.9-538.6,467Z"/>
  <path class="st0" d="M1133.7,364.8c-11.9-32.2-28.8-63.4-46.6-92.1-17.4-28.2-38.5-53.6-60.7-77.8-22.2-24.2-47.6-45.2-73.9-64.8-27-20.2-56.9-36.5-87.5-51.2-27.6-13.2-73.9-29.1-104.6-35.2h0c-36.4-8.1-74.3-12.3-113.2-12.3s-17.2,7.7-17.2,17.2v222.8c0,9.5,7.7,17.2,17.2,17.2,145.9,0,264.1,118.3,264.1,264.1s7.7,17.2,17.2,17.2h222.8c9.5,0,17.2-7.7,17.2-17.2,0-66.3-12.4-129.7-34.9-188ZM664.4,66.1c19.4.7,38.5,2.5,57.3,5.3h0s-57.3,57.3-57.3,57.3v-62.7ZM664.5,254.7v-77.2s98-98,98-98c22.2,5.4,43.8,12.3,64.7,20.6l-155.1,155.1c-2.5-.2-5.1-.4-7.6-.5ZM714.3,261.7h0s146.7-146.7,146.7-146.7c18.8,9.2,36.9,19.6,54.3,31l-137.8,137.9c-19.9-9.7-41.1-17.2-63.1-22.2ZM808.6,301.5h0s135.1-135.1,135.1-135.1c16,12.3,31.3,25.6,45.6,39.8l-133.2,133.2c-14.4-14.2-30.4-26.9-47.5-37.9ZM913,416.5c-9.5-18.4-20.8-35.7-33.7-51.7l133.6-133.6c13.4,15.2,25.8,31.3,37.3,48.1l-137.2,137.2ZM927.8,450.5l141.2-141.2c10.6,18.3,20,37.4,28.2,57.1l-153.2,153.2c-2.7-24-8.2-47.2-16.2-69.2ZM976.8,535.5l133.6-133.6c7.2,22.2,12.9,45,16.9,68.5l-65.1,65.1h-85.4ZM1110.9,535.5l21.8-21.8c.6,7.2,1,14.4,1.3,21.8h-23Z"/>
</svg>