<?xml version="1.0" encoding="UTF-8"?>
<svg id="Layer_1" xmlns="http://www.w3.org/2000/svg" version="1.1" viewBox="0 0 1200 1200">
  <!-- Generator: Adobe Illustrator 29.4.0, SVG Export Plug-In . SVG Version: 2.1.0 Build 152)  -->
  <path d="M107.2,491.6c12.7-58.2,35.5-113.1,67.7-163.4,5.2-8,15.9-10.4,23.9-5.2,8,5.2,10.4,15.9,5.2,23.9-30,46.8-51.2,98-63.1,152.1-1.8,8.1-8.9,13.6-16.9,13.6s-2.5-.1-3.7-.4c-9.3-2-15.2-11.3-13.2-20.6h0ZM701,141c54.1,11.9,105.3,33.1,152.1,63.1,2.9,1.8,6.1,2.7,9.3,2.7,5.7,0,11.3-2.8,14.6-8,5.2-8,2.8-18.7-5.2-23.9-50.3-32.2-105.2-55-163.4-67.7-9.3-2-18.6,3.9-20.6,13.2-2,9.3,3.9,18.6,13.2,20.6h0ZM337.6,206.7c3.2,0,6.4-.9,9.3-2.7,46.8-30,98-51.2,152.1-63.1,9.3-2,15.2-11.3,13.2-20.6-2-9.3-11.3-15.2-20.6-13.2-58.2,12.7-113.1,35.5-163.4,67.7-8,5.2-10.4,15.9-5.2,23.9,3.3,5.2,8.9,8,14.6,8h0ZM853.2,996c-46.8,30-98,51.2-152.1,63.1-9.3,2-15.2,11.3-13.2,20.6,1.8,8.1,8.9,13.6,16.9,13.6s2.5-.1,3.7-.4c58.2-12.7,113.1-35.5,163.4-67.7,8-5.2,10.4-15.9,5.2-23.9-5.2-8.1-15.9-10.4-23.9-5.2h0ZM1079.7,687.8c-9.3-2-18.6,3.9-20.6,13.2-11.9,54.1-33.1,105.3-63.1,152.1-5.2,8-2.8,18.7,5.2,23.9,2.9,1.8,6.1,2.7,9.3,2.7,5.7,0,11.3-2.8,14.6-8,32.2-50.3,55-105.2,67.7-163.4,2-9.3-3.9-18.5-13.2-20.6h0ZM204,853.1c-30-46.8-51.2-98-63.1-152.1-2-9.3-11.3-15.2-20.6-13.2-9.3,2-15.2,11.3-13.2,20.6,12.7,58.2,35.5,113.1,67.7,163.4,3.3,5.2,8.9,8,14.6,8s6.4-.9,9.3-2.7c8.1-5.2,10.4-15.9,5.2-23.9h0ZM499,1059.1c-54.1-11.9-105.3-33.1-152.1-63.1-8.1-5.2-18.7-2.8-23.9,5.2-5.2,8-2.8,18.7,5.2,23.9,50.3,32.2,105.2,55,163.4,67.7,1.2.3,2.5.4,3.7.4,7.9,0,15.1-5.5,16.9-13.6,2-9.3-3.9-18.6-13.2-20.6h0ZM996,346.9c30,46.8,51.2,98,63.1,152.1,1.8,8.1,8.9,13.6,16.9,13.6s2.5-.1,3.7-.4c9.3-2,15.2-11.3,13.2-20.6-12.7-58.2-35.5-113.1-67.7-163.4-5.2-8-15.9-10.4-23.9-5.2-8,5.2-10.4,15.9-5.2,23.9h0ZM311.5,913c5.3,9.3,8.3,20.1,8.3,31.5,0,35.5-28.8,64.3-64.3,64.3s-64.3-28.8-64.3-64.3,28.8-64.3,64.3-64.3,22.2,3,31.5,8.3l40.9-40.9c6.8-6.8,17.7-6.8,24.5,0,6.8,6.8,6.8,17.7,0,24.5l-40.9,40.9ZM285.2,944.5c0-16.4-13.3-29.7-29.7-29.7s-29.7,13.3-29.7,29.7,13.3,29.7,29.7,29.7c16.4,0,29.7-13.3,29.7-29.7ZM888.5,287c-5.3-9.3-8.3-20.1-8.3-31.5,0-35.5,28.8-64.3,64.3-64.3s64.3,28.8,64.3,64.3-28.8,64.3-64.3,64.3-22.2-3-31.5-8.3l-40.9,40.9c-3.4,3.4-7.8,5.1-12.2,5.1s-8.9-1.7-12.2-5.1c-6.8-6.8-6.8-17.7,0-24.5l40.9-40.9ZM914.8,255.5c0,16.4,13.3,29.7,29.7,29.7s29.7-13.3,29.7-29.7-13.3-29.7-29.7-29.7-29.7,13.3-29.7,29.7ZM1151.6,600c0,35.5-28.8,64.3-64.3,64.3s-54.4-19.9-61.9-47h-57.8c-9.6,0-17.3-7.8-17.3-17.3s7.8-17.3,17.3-17.3h57.8c7.6-27.1,32.5-47,61.9-47,35.5,0,64.3,28.9,64.3,64.3h0ZM1117,600c0-16.4-13.3-29.7-29.7-29.7s-29.7,13.3-29.7,29.7,13.3,29.7,29.7,29.7,29.7-13.3,29.7-29.7ZM664.3,1087.2c0,35.5-28.8,64.3-64.3,64.3s-64.3-28.8-64.3-64.3,19.9-54.4,47-61.9v-57.8c0-9.6,7.8-17.3,17.3-17.3s17.3,7.8,17.3,17.3v57.8c27.1,7.6,47,32.5,47,61.9h0ZM629.7,1087.2c0-16.4-13.3-29.7-29.7-29.7s-29.7,13.3-29.7,29.7,13.3,29.7,29.7,29.7,29.7-13.3,29.7-29.7ZM535.7,112.8c0-35.5,28.8-64.3,64.3-64.3s64.3,28.8,64.3,64.3-19.9,54.4-47,61.9v57.8c0,9.6-7.8,17.3-17.3,17.3s-17.3-7.8-17.3-17.3v-57.8c-27.1-7.6-47-32.5-47-61.9h0ZM570.3,112.8c0,16.4,13.3,29.7,29.7,29.7s29.7-13.3,29.7-29.7-13.3-29.7-29.7-29.7-29.7,13.3-29.7,29.7h0ZM1008.9,944.5c0,35.5-28.8,64.3-64.3,64.3s-64.3-28.8-64.3-64.3,3-22.2,8.3-31.5l-40.9-40.9c-6.8-6.8-6.8-17.7,0-24.5,6.8-6.8,17.7-6.8,24.5,0l40.9,40.9c9.3-5.3,20.1-8.3,31.5-8.3,35.5,0,64.3,28.8,64.3,64.3h0ZM974.3,944.5c0-16.4-13.3-29.7-29.7-29.7s-29.7,13.3-29.7,29.7,13.3,29.7,29.7,29.7,29.7-13.3,29.7-29.7ZM191.2,255.5c0-35.5,28.8-64.3,64.3-64.3s64.3,28.8,64.3,64.3-2.9,22-8.3,31.6l40.9,40.9c6.8,6.8,6.8,17.7,0,24.5-3.4,3.4-7.8,5.1-12.2,5.1s-8.9-1.7-12.2-5.1l-40.9-40.9c-9.5,5.4-20.3,8.3-31.6,8.3-35.5,0-64.3-28.9-64.3-64.3h0ZM225.8,255.5c0,16.4,13.3,29.7,29.7,29.7s15.4-3.1,21-8.7c5.6-5.6,8.7-13.1,8.7-21,0-16.4-13.3-29.7-29.7-29.7-16.4,0-29.7,13.3-29.7,29.7h0ZM112.8,664.3c-35.5,0-64.3-28.8-64.3-64.3s28.8-64.3,64.3-64.3,54.4,19.9,61.9,47h57.8c9.6,0,17.3,7.8,17.3,17.3s-7.8,17.3-17.3,17.3h-57.8c-7.6,27.1-32.5,47-61.9,47h0ZM112.8,629.7c16.4,0,29.7-13.3,29.7-29.7s-13.3-29.7-29.7-29.7-29.7,13.3-29.7,29.7,13.3,29.7,29.7,29.7ZM763.2,647.3c-3.5,12.1-8.3,23.6-14.4,34.7l11.7,11.7c3.2,3.2,5.1,7.6,5.1,12.2s-1.8,9-5.1,12.2l-42.4,42.4c-6.8,6.8-17.7,6.8-24.5,0l-11.7-11.7c-11,6.1-22.6,10.9-34.7,14.4v16.5c0,9.6-7.8,17.3-17.3,17.3h-60c-9.6,0-17.3-7.8-17.3-17.3v-16.5c-12.1-3.5-23.6-8.3-34.7-14.4l-11.7,11.7c-3.2,3.2-7.6,5.1-12.2,5.1s-9-1.8-12.2-5.1l-42.4-42.4c-6.8-6.8-6.8-17.7,0-24.5l11.7-11.7c-6.1-11-10.9-22.6-14.4-34.7h-16.5c-9.6,0-17.3-7.8-17.3-17.3v-60c0-9.6,7.8-17.3,17.3-17.3h16.5c3.5-12.1,8.3-23.6,14.4-34.7l-11.7-11.7c-6.8-6.8-6.8-17.7,0-24.5l42.4-42.4c6.8-6.8,17.7-6.8,24.5,0l11.7,11.7c11-6.1,22.6-10.9,34.7-14.4v-16.5c0-9.6,7.8-17.3,17.3-17.3h60c9.6,0,17.3,7.8,17.3,17.3v16.5c12.1,3.5,23.6,8.3,34.7,14.4l11.7-11.7c3.2-3.2,7.6-5.1,12.2-5.1s9,1.8,12.2,5.1l42.4,42.4c6.8,6.8,6.8,17.7,0,24.5l-11.7,11.7c6.1,11,10.9,22.6,14.4,34.7h16.5c9.6,0,17.3,7.8,17.3,17.3v60c0,9.6-7.8,17.3-17.3,17.3h-16.5s0,0,0,0ZM762.4,587.3h-12.8c-8.3,0-15.4-5.8-17-13.9-3.5-17.4-10.2-33.6-20-48.4-4.6-6.9-3.7-16,2.2-21.8l9.1-9.1-17.9-17.9-9.1,9.1c-5.8,5.8-15,6.7-21.8,2.2-14.8-9.8-31-16.6-48.4-20-8.1-1.6-13.9-8.7-13.9-17v-12.8h-25.4v12.8c0,8.3-5.8,15.4-13.9,17-17.4,3.5-33.6,10.2-48.4,20-6.9,4.6-16,3.7-21.8-2.2l-9.1-9.1-17.9,17.9,9.1,9.1c5.8,5.8,6.7,15,2.2,21.8-9.8,14.8-16.6,31-20,48.4-1.6,8.1-8.7,13.9-17,13.9h-12.8v25.4h12.8c8.3,0,15.4,5.8,17,13.9,3.5,17.4,10.2,33.6,20,48.4,4.6,6.9,3.7,16-2.2,21.8l-9.1,9.1,17.9,17.9,9.1-9.1c5.8-5.8,15-6.7,21.8-2.2,14.8,9.8,31,16.6,48.4,20,8.1,1.6,13.9,8.7,13.9,17v12.8h25.4v-12.8c0-8.3,5.8-15.4,13.9-17,17.4-3.5,33.6-10.2,48.4-20,6.9-4.6,16-3.7,21.8,2.2l9.1,9.1,17.9-17.9-9.1-9.1c-5.8-5.8-6.7-15-2.2-21.8,9.8-14.8,16.6-31,20-48.4,1.6-8.1,8.7-13.9,17-13.9h12.8v-25.4h0ZM709,600c0,60.1-48.9,109-109,109s-109-48.9-109-109,48.9-109,109-109,109,48.9,109,109ZM674.4,600c0-41-33.4-74.4-74.4-74.4s-74.4,33.4-74.4,74.4,33.4,74.4,74.4,74.4,74.4-33.4,74.4-74.4ZM870.9,466.2c-4.2-8.6-14.6-12.1-23.2-7.8s-12.1,14.6-7.8,23.2c18.3,37,27.6,76.8,27.6,118.4,0,58.8-19,115-54.1,161.2l.6-7.3c.8-9.5-6.3-17.9-15.9-18.6-9.5-.8-17.9,6.3-18.6,15.9l-4.7,58.1c-.4,5.1,1.4,10,5,13.6,3.3,3.3,7.7,5.1,12.2,5.1s.9,0,1.4,0l58.1-4.7c9.5-.8,16.6-9.1,15.9-18.6-.8-9.5-9.1-16.6-18.6-15.9l-13.9,1.1c43.5-53.6,67.1-120.1,67.1-189.8s-10.5-92-31.2-133.8h0ZM466.2,329.1c-8.6,4.2-12.1,14.6-7.8,23.2s14.6,12.1,23.2,7.8c37-18.3,76.8-27.6,118.4-27.6,58.8,0,115,19,161.2,54.1l-7.3-.6c-9.5-.8-17.9,6.3-18.6,15.9-.8,9.5,6.3,17.9,15.9,18.6l58.1,4.7c.5,0,.9,0,1.4,0,4.6,0,9-1.8,12.2-5.1,3.6-3.6,5.4-8.6,5-13.6l-4.7-58.1c-.8-9.5-9.1-16.6-18.6-15.9-9.5.8-16.6,9.1-15.9,18.6l1.1,13.9c-53.6-43.5-120.1-67.2-189.8-67.2s-92,10.5-133.8,31.2h0ZM733.8,870.9c8.6-4.2,12.1-14.6,7.8-23.2s-14.6-12.1-23.2-7.8c-37,18.3-76.8,27.6-118.4,27.6-58.8,0-115-19-161.2-54.1l7.3.6c9.5.8,17.9-6.3,18.6-15.9.8-9.5-6.3-17.9-15.9-18.6l-58.1-4.7c-5-.4-10,1.4-13.6,5-3.6,3.6-5.4,8.6-5,13.6l4.7,58.1c.7,9.1,8.3,15.9,17.2,15.9s.9,0,1.4,0c9.5-.8,16.6-9.1,15.9-18.6l-1.1-13.9c53.6,43.5,120.1,67.2,189.8,67.2s92-10.5,133.8-31.2h0ZM386,446.1c-.8,9.5,6.3,17.9,15.9,18.6.5,0,.9,0,1.4,0,8.9,0,16.5-6.9,17.2-15.9l4.7-58.1c.4-5.1-1.4-10-5-13.6-3.6-3.6-8.6-5.4-13.6-5l-58.1,4.7c-9.5.8-16.6,9.1-15.9,18.6.8,9.5,9.1,16.6,18.6,15.9l13.9-1.1c-43.5,53.6-67.1,120.1-67.1,189.8s10.5,92,31.2,133.8c3,6.1,9.1,9.6,15.5,9.6s5.2-.6,7.7-1.8c8.6-4.2,12.1-14.6,7.8-23.2-18.3-37-27.6-76.8-27.6-118.4,0-58.8,19-115,54.1-161.2l-.6,7.3Z"/>
</svg>