<?xml version="1.0" encoding="UTF-8"?>
<svg id="Layer_1" xmlns="http://www.w3.org/2000/svg" version="1.1" viewBox="0 0 1200 1200">
  <!-- Generator: Adobe Illustrator 29.4.0, SVG Export Plug-In . SVG Version: 2.1.0 Build 152)  -->
  <path d="M830.8,350c0,40.2-32.7,72.8-72.9,72.8h-167c-5.2,0-9.4-4.2-9.4-9.4s4.2-9.4,9.4-9.4h167c14.8.8,29.2-4.6,39.9-14.9s16.8-24.4,16.8-39.2-6-29-16.8-39.2-25.2-15.6-39.9-14.9h-37.5v89.4h-129.5c-15.5,0-28.1,12.6-28.1,28.1s12.6,28.1,28.1,28.1h119c-24,52.5-81.2,81.3-137.7,69.2-56.4-12.1-96.8-61.8-97.2-119.5v-53h85.4c46.8-.1,91.9-18,126.1-50l32.6-30.1,2-.8v20.2h37.5c39.8.4,71.9,32.7,72.1,72.5h0ZM673.5,275l36.4-33.6,3.6-.8h0c4.3-1,7.4-4.9,7.4-9.3v-116.2c0-5.2-4.2-9.3-9.4-9.4h-125c-44.3,0-86.9,17.5-118.3,48.8-31.4,31.4-49,73.9-49.1,118.2v37.5c0,5.2,4.2,9.4,9.4,9.4h131.6c42.1,0,82.6-16,113.4-44.6h0ZM644.1,666.9l46,59v-156.5c-3.9-.8-8.1-1.3-12.5-1.9v34.1c0,25.9-12.4,50.2-33.5,65.2h0ZM842.8,443.2c-2.8-4.1-8.2-5.2-12.5-2.8-4.1,2.8-5.3,8.3-2.8,12.5,52.1,80.8,57.4,183.1,13.9,268.7-6.4-34.4-22.2-66.4-45.6-92.4-23.4-26-53.5-45.1-87-55.2v179.1c0,4-2.5,7.5-6.3,8.9-.8.2-1.7.3-2.6.4-2.9,0-5.6-1.4-7.4-3.7l-64.7-83.1c-18.8,7.7-39.9,7.7-58.8,0l-64.7,83.1c-1.8,2.3-4.5,3.6-7.4,3.7-1,0-2,0-3,0-3.8-1.3-6.4-4.9-6.4-8.9v-178.6c-32.8,10.5-62.1,29.8-84.7,55.8-22.6,25.9-37.8,57.6-43.8,91.5-23.1-45.3-32.9-96.2-28.3-146.9,4.6-50.7,23.4-99,54.3-139.4,2-1.9,3-4.6,2.8-7.4-.2-2.7-1.5-5.2-3.8-6.9-2.2-1.6-5.1-2.2-7.7-1.6-2.7.7-5,2.4-6.2,4.9-43,56.3-63.8,126.5-58.4,197.2,5.4,70.7,36.6,136.9,87.6,186.1,51,49.2,118.4,77.9,189.2,80.7,70.8,2.8,140.2-20.6,195-65.6,54.8-45,91-108.6,102-178.6,10.9-70.1-4.3-141.7-42.7-201.2v-.4ZM537.5,519.1v82.5c-.8,16.7,5.3,33,16.9,45.1,11.6,12,27.6,18.9,44.3,18.9s32.7-6.8,44.3-18.9c11.5-12.1,17.6-28.4,16.9-45.1v-82.8c-38.6,18.8-83.7,18.8-122.3,0v.3ZM518.8,601.6v-33.5c-4.1,0-8.2,1.3-12.5,2.1v155.6l46.1-59h0c-21.4-14.8-34.2-39.2-34.3-65.2h.7ZM1085.5,506.5h-18.9c-39.4-1-74.3-25.7-88.3-62.5v-1.6c-16.2-36-9-78.2,18.2-106.7l12.5-12.5c3.7-3.7,3.7-9.6,0-13.2l-119.1-118.8c-1.7-1.8-4.1-2.8-6.7-2.8s-4.9,1-6.6,2.8l-9.2,8.9c-29,29.1-72.7,37.7-110.5,21.8l-5.9-2.4h0c-3.9-1.7-7.8-3.7-11.5-5.9v17.4c0,1.9-.2,3.8-.7,5.8l.6,21.6h18.3c24.9-.9,49,8.3,67,25.6,17.9,17.2,28,41.1,28,66s-10.1,48.7-28,66c-18,17.2-42.1,26.5-67,25.6h-27.4l-3.5,7.7c-10.7,23.6-27.7,43.8-49,58.5v40.5h4.1l8,1.1v-.6l13.5,4.1,5.2,1,5.5,1.6c56.4,17,103,57,128.3,110.2,18.8-69,7.5-142.7-31.3-202.8-4.2-6.2-5.7-14-4.2-21.4,1.5-7.4,6-13.9,12.3-18,6.4-4.1,14.1-5.5,21.5-3.8,7.4,1.6,13.8,6.2,17.7,12.7,40.9,63.4,57.1,139.7,45.5,214.3-11.6,74.6-50.3,142.3-108.6,190.2-58.3,48-132.2,72.8-207.7,69.8s-147.1-33.6-201.5-86c-54.3-52.4-87.5-123-93.2-198.2-5.7-75.3,16.4-150,62.2-210,5.3-6.9,13.6-11,22.4-11,14.2,0,26.2,10.8,27.8,25,1,7.4-1,14.9-5.6,20.8-47.5,62.4-63.2,143.3-42.6,219,24.5-51.9,69.4-91.4,124-109l5.8-1.9,4.5-1,14.2-4.5v1.7l9.4-1.5h2.9v-41.7c-39-26.3-62.4-70.2-62.5-117.2v-53h-27.5c-15.5,0-28.1-12.6-28.1-28.1v-37.5c0-14,1.7-28,4.9-41.6-25.8.9-50.8-8.9-69.1-27.1l-12.5-12.5h0c-1.7-1.7-4.1-2.8-6.6-2.8s-4.9,1-6.7,2.8l-118.9,118.6c-3.7,3.7-3.7,9.6,0,13.3l12.5,12.5c27.3,28.5,34.5,70.7,18.2,106.7l-.6,1.6c-14,36.8-48.8,61.5-88.3,62.5h-17.9c-5.2,0-9.3,4.2-9.4,9.4v168.1c0,5.2,4.2,9.3,9.4,9.4h18.2c39.4.8,74.3,25.6,88.3,62.5l.6,1.6c16.3,36,9,78.2-18.2,106.7l-12.5,12.5c-3.7,3.7-3.7,9.6,0,13.2l118.9,118.9c3.7,3.7,9.6,3.7,13.3,0l12.5-12.5h0c28.5-27.2,70.7-34.5,106.7-18.2h1.6c36.9,13.9,61.6,48.8,62.5,88.3v18.2c0,5.2,4.2,9.3,9.4,9.4h167.8c5.2,0,9.3-4.2,9.4-9.4v-18.1c.8-39.4,25.6-74.4,62.5-88.3h1.6c36-16.2,78.2-9,106.7,18.2l12.5,12.5c3.7,3.7,9.6,3.7,13.2,0l118.9-118.9c3.7-3.7,3.7-9.6,0-13.3l-12.5-12.5h0c-27.3-28.5-34.5-70.7-18.3-106.7v-1.6h0c13.9-36.8,48.8-61.6,88.3-62.5h18.2c5.2,0,9.3-4.2,9.4-9.4v-168.4c0-5.1-4.1-9.2-9.2-9.4h.7ZM793.3,350c0-19.5-15.9-35.2-35.4-35.2h-18.2v70.6h18.2c19.5,0,35.4-15.9,35.4-35.4h0Z"/>
</svg>